<svg width="12" height="12" viewBox="0 0 12 12" fill="none" xmlns="http://www.w3.org/2000/svg">
<g clip-path="url(#clip0_2794_813)">
<path d="M1.99721 6.99181C1.9027 6.99213 1.81005 6.96563 1.73 6.91539C1.64996 6.86515 1.58581 6.79322 1.54502 6.70797C1.50422 6.62272 1.48845 6.52765 1.49954 6.43379C1.51063 6.33994 1.54813 6.25116 1.60767 6.17777L6.55185 1.08376C6.58894 1.04095 6.63948 1.01202 6.69517 1.00172C6.75087 0.991423 6.80841 1.00036 6.85836 1.02708C6.9083 1.05379 6.94768 1.09669 6.97003 1.14874C6.99238 1.20078 6.99637 1.25888 6.98135 1.31349L6.02247 4.31995C5.9942 4.39563 5.9847 4.47703 5.9948 4.55718C6.0049 4.63733 6.03429 4.71383 6.08045 4.78012C6.12661 4.84642 6.18817 4.90053 6.25983 4.93781C6.3315 4.97508 6.41114 4.99442 6.49192 4.99416H9.98781C10.0823 4.99384 10.175 5.02034 10.255 5.07058C10.3351 5.12082 10.3992 5.19275 10.44 5.278C10.4808 5.36325 10.4966 5.45832 10.4855 5.55217C10.4744 5.64603 10.4369 5.73481 10.3774 5.8082L5.43317 10.9022C5.39608 10.945 5.34554 10.9739 5.28985 10.9842C5.23415 10.9945 5.17661 10.9856 5.12666 10.9589C5.07672 10.9322 5.03734 10.8893 5.01499 10.8372C4.99264 10.7852 4.98865 10.7271 5.00367 10.6725L5.96254 7.66602C5.99082 7.59034 6.00031 7.50894 5.99022 7.42879C5.98012 7.34864 5.95073 7.27214 5.90457 7.20584C5.85841 7.13955 5.79685 7.08544 5.72519 7.04816C5.65352 7.01088 5.57388 6.99155 5.4931 6.99181H1.99721Z" stroke="white" stroke-width="0.998825" stroke-linecap="round" stroke-linejoin="round"/>
</g>
<defs>
<clipPath id="clip0_2794_813">
<rect width="11.9859" height="11.9859" fill="white"/>
</clipPath>
</defs>
</svg>
