<svg width="20" height="20" viewBox="0 0 20 20" fill="none" xmlns="http://www.w3.org/2000/svg">
<g clip-path="url(#clip0_2707_387)">
<path d="M4.99593 1.66504L2.49805 4.99556V16.6524C2.49805 17.094 2.67349 17.5176 2.98579 17.8299C3.29809 18.1422 3.72165 18.3176 4.16331 18.3176H15.8201C16.2618 18.3176 16.6853 18.1422 16.9976 17.8299C17.3099 17.5176 17.4854 17.094 17.4854 16.6524V4.99556L14.9875 1.66504H4.99593Z" stroke="white" stroke-width="1.66526" stroke-linecap="round" stroke-linejoin="round"/>
<path d="M2.49805 4.99561H17.4854" stroke="white" stroke-width="1.66526" stroke-linecap="round" stroke-linejoin="round"/>
<path d="M13.3222 8.32617C13.3222 9.20948 12.9713 10.0566 12.3467 10.6812C11.7221 11.3058 10.875 11.6567 9.99165 11.6567C9.10834 11.6567 8.26121 11.3058 7.63662 10.6812C7.01203 10.0566 6.66113 9.20948 6.66113 8.32617" stroke="white" stroke-width="1.66526" stroke-linecap="round" stroke-linejoin="round"/>
</g>
<defs>
<clipPath id="clip0_2707_387">
<rect width="19.9831" height="19.9831" fill="white"/>
</clipPath>
</defs>
</svg>
