<svg width="16" height="16" viewBox="0 0 16 16" fill="none" xmlns="http://www.w3.org/2000/svg">
<g clip-path="url(#clip0_2710_2309)">
<path d="M7.33101 14.4819C7.53363 14.5989 7.76348 14.6605 7.99745 14.6605C8.23142 14.6605 8.46126 14.5989 8.66389 14.4819L13.3289 11.8162C13.5314 11.6993 13.6995 11.5313 13.8165 11.3289C13.9334 11.1265 13.9951 10.897 13.9954 10.6632V5.33173C13.9951 5.09799 13.9334 4.86843 13.8165 4.66607C13.6995 4.46371 13.5314 4.29566 13.3289 4.17879L8.66389 1.51304C8.46126 1.39606 8.23142 1.33447 7.99745 1.33447C7.76348 1.33447 7.53363 1.39606 7.33101 1.51304L2.66595 4.17879C2.46353 4.29566 2.2954 4.46371 2.17842 4.66607C2.06145 4.86843 1.99975 5.09799 1.99951 5.33173V10.6632C1.99975 10.897 2.06145 11.1265 2.17842 11.3289C2.2954 11.5313 2.46353 11.6993 2.66595 11.8162L7.33101 14.4819Z" stroke="#6B7E3F" stroke-width="1.33288" stroke-linecap="round" stroke-linejoin="round"/>
<path d="M7.99707 14.6614V7.99707" stroke="#6B7E3F" stroke-width="1.33288" stroke-linecap="round" stroke-linejoin="round"/>
<path d="M2.19238 4.66504L7.99705 7.99723L13.8017 4.66504" stroke="#6B7E3F" stroke-width="1.33288" stroke-linecap="round" stroke-linejoin="round"/>
<path d="M4.99805 2.8457L10.996 6.27786" stroke="#6B7E3F" stroke-width="1.33288" stroke-linecap="round" stroke-linejoin="round"/>
</g>
<defs>
<clipPath id="clip0_2710_2309">
<rect width="15.9945" height="15.9945" fill="white"/>
</clipPath>
</defs>
</svg>
