<svg width="40" height="40" viewBox="0 0 40 40" fill="none" xmlns="http://www.w3.org/2000/svg">
<path d="M23.3196 6.66406C23.9207 6.66405 24.5106 6.82665 25.0268 7.13461C25.543 7.44258 25.9663 7.88445 26.2518 8.41341L27.0615 9.91285C27.3471 10.4418 27.7704 10.8837 28.2866 11.1917C28.8028 11.4996 29.3927 11.6622 29.9938 11.6622H33.3209C34.2046 11.6622 35.0521 12.0133 35.677 12.6382C36.3019 13.263 36.653 14.1106 36.653 14.9943V29.9887C36.653 30.8724 36.3019 31.72 35.677 32.3449C35.0521 32.9698 34.2046 33.3208 33.3209 33.3208H6.66413C5.7804 33.3208 4.93287 32.9698 4.30798 32.3449C3.68309 31.72 3.33203 30.8724 3.33203 29.9887V14.9943C3.33203 14.1106 3.68309 13.263 4.30798 12.6382C4.93287 12.0133 5.7804 11.6622 6.66413 11.6622H9.99122C10.5917 11.6622 11.181 11.5 11.6969 11.1927C12.2128 10.8853 12.636 10.4443 12.9218 9.91619L13.7365 8.41008C14.0223 7.88199 14.4455 7.44096 14.9614 7.13361C15.4773 6.82626 16.0666 6.66403 16.6671 6.66406H23.3196Z" stroke="#99A1AF" stroke-width="3.33209" stroke-linecap="round" stroke-linejoin="round"/>
<path d="M19.9928 26.6569C22.7532 26.6569 24.9909 24.4192 24.9909 21.6588C24.9909 18.8984 22.7532 16.6606 19.9928 16.6606C17.2324 16.6606 14.9946 18.8984 14.9946 21.6588C14.9946 24.4192 17.2324 26.6569 19.9928 26.6569Z" stroke="#99A1AF" stroke-width="3.33209" stroke-linecap="round" stroke-linejoin="round"/>
</svg>
