<svg width="20" height="20" viewBox="0 0 20 20" fill="none" xmlns="http://www.w3.org/2000/svg">
<g clip-path="url(#clip0_2706_48)">
<path d="M18.1522 8.32647C18.5324 10.1926 18.2614 12.1328 17.3844 13.8233C16.5073 15.5139 15.0772 16.8526 13.3325 17.6164C11.5878 18.3801 9.63407 18.5227 7.79702 18.0202C5.95996 17.5178 4.35068 16.4008 3.23752 14.8555C2.12437 13.3101 1.57463 11.4299 1.67999 9.52827C1.78536 7.62667 2.53945 5.81866 3.81651 4.40576C5.09357 2.99286 6.81641 2.06046 8.69773 1.76406C10.579 1.46767 12.5051 1.82518 14.1547 2.77699" stroke="#6B7E3F" stroke-width="1.66526" stroke-linecap="round" stroke-linejoin="round"/>
<path d="M7.49365 9.15897L9.99154 11.6569L18.3178 3.33057" stroke="#6B7E3F" stroke-width="1.66526" stroke-linecap="round" stroke-linejoin="round"/>
</g>
<defs>
<clipPath id="clip0_2706_48">
<rect width="19.9831" height="19.9831" fill="white"/>
</clipPath>
</defs>
</svg>
