<svg width="20" height="20" viewBox="0 0 20 20" fill="none" xmlns="http://www.w3.org/2000/svg">
<g clip-path="url(#clip0_1352_2386)">
<path d="M9.99148 18.3184C7.78317 18.3184 5.66531 17.4412 4.1038 15.8797C2.54229 14.3181 1.66504 12.2003 1.66504 9.99197C1.66504 7.78366 2.54229 5.6658 4.1038 4.10429C5.66531 2.54277 7.78317 1.66553 9.99148 1.66553C12.1998 1.66553 14.3177 2.45505 15.8792 3.86041C17.4407 5.26577 18.3179 7.17185 18.3179 9.15932C18.3179 10.2635 17.8793 11.3224 17.0985 12.1032C16.3178 12.8839 15.2589 13.3225 14.1547 13.3225H12.2813C12.0106 13.3225 11.7454 13.3979 11.5152 13.5402C11.285 13.6824 11.099 13.886 10.978 14.128C10.8569 14.3701 10.8057 14.641 10.83 14.9105C10.8543 15.18 10.9532 15.4375 11.1156 15.6539L11.3653 15.987C11.5277 16.2035 11.6266 16.4609 11.6509 16.7304C11.6752 16.9999 11.624 17.2709 11.5029 17.5129C11.3819 17.755 11.1959 17.9585 10.9657 18.1008C10.7355 18.2431 10.4702 18.3184 10.1996 18.3184H9.99148Z" stroke="#6B7558" stroke-width="1.66529" stroke-linecap="round" stroke-linejoin="round"/>
<path d="M11.2405 5.82874C11.4705 5.82874 11.6569 5.64234 11.6569 5.41242C11.6569 5.18249 11.4705 4.99609 11.2405 4.99609C11.0106 4.99609 10.8242 5.18249 10.8242 5.41242C10.8242 5.64234 11.0106 5.82874 11.2405 5.82874Z" fill="#6B7558" stroke="#6B7558" stroke-width="1.66529" stroke-linecap="round" stroke-linejoin="round"/>
<path d="M14.5716 9.1593C14.8015 9.1593 14.9879 8.97291 14.9879 8.74298C14.9879 8.51305 14.8015 8.32666 14.5716 8.32666C14.3417 8.32666 14.1553 8.51305 14.1553 8.74298C14.1553 8.97291 14.3417 9.1593 14.5716 9.1593Z" fill="#6B7558" stroke="#6B7558" stroke-width="1.66529" stroke-linecap="round" stroke-linejoin="round"/>
<path d="M5.41242 10.8243C5.64234 10.8243 5.82874 10.6379 5.82874 10.408C5.82874 10.1781 5.64234 9.9917 5.41242 9.9917C5.18249 9.9917 4.99609 10.1781 4.99609 10.408C4.99609 10.6379 5.18249 10.8243 5.41242 10.8243Z" fill="#6B7558" stroke="#6B7558" stroke-width="1.66529" stroke-linecap="round" stroke-linejoin="round"/>
<path d="M7.07745 6.66126C7.30738 6.66126 7.49378 6.47486 7.49378 6.24494C7.49378 6.01501 7.30738 5.82861 7.07745 5.82861C6.84753 5.82861 6.66113 6.01501 6.66113 6.24494C6.66113 6.47486 6.84753 6.66126 7.07745 6.66126Z" fill="#6B7558" stroke="#6B7558" stroke-width="1.66529" stroke-linecap="round" stroke-linejoin="round"/>
</g>
<defs>
<clipPath id="clip0_1352_2386">
<rect width="19.9835" height="19.9835" fill="white"/>
</clipPath>
</defs>
</svg>
