<svg width="20" height="20" viewBox="0 0 20 20" fill="none" xmlns="http://www.w3.org/2000/svg">
<path d="M2.49125 13.6071C2.61368 13.9159 2.64094 14.2543 2.56952 14.5788L1.68276 17.3181C1.65418 17.4571 1.66157 17.601 1.70422 17.7363C1.74686 17.8715 1.82336 17.9937 1.92644 18.0911C2.02953 18.1885 2.15579 18.258 2.29325 18.2929C2.43071 18.3278 2.57482 18.3271 2.7119 18.2907L5.55372 17.4597C5.85989 17.399 6.17698 17.4255 6.46879 17.5363C8.24681 18.3666 10.261 18.5423 12.1559 18.0323C14.0508 17.5223 15.7047 16.3595 16.8258 14.7489C17.9469 13.1383 18.4631 11.1836 18.2834 9.22947C18.1037 7.27537 17.2396 5.44753 15.8436 4.06845C14.4476 2.68936 12.6093 1.84765 10.6531 1.69183C8.697 1.53601 6.74867 2.07608 5.15192 3.21677C3.55516 4.35746 2.41259 6.02545 1.9258 7.92645C1.439 9.82746 1.63927 11.8393 2.49125 13.6071Z" stroke="#6B7558" stroke-width="1.66529" stroke-linecap="round" stroke-linejoin="round"/>
</svg>
