<svg width="15" height="15" viewBox="0 0 15 15" fill="none" xmlns="http://www.w3.org/2000/svg">
<path d="M13.4492 3.87488C13.8017 3.5225 13.9998 3.04452 13.9998 2.54612C13.9999 2.04771 13.802 1.56969 13.4496 1.21721C13.0972 0.864741 12.6192 0.666689 12.1208 0.666626C11.6224 0.666563 11.1444 0.864496 10.7919 1.21688L1.89458 10.1162C1.7398 10.2705 1.62532 10.4606 1.56125 10.6695L0.680582 13.5709C0.663352 13.6285 0.662051 13.6898 0.676816 13.7481C0.691582 13.8064 0.721862 13.8597 0.764446 13.9022C0.80703 13.9447 0.860329 13.9749 0.918688 13.9896C0.977046 14.0043 1.03829 14.0029 1.09592 13.9855L3.99792 13.1055C4.2067 13.042 4.3967 12.9283 4.55125 12.7742L13.4492 3.87488Z" stroke="#6B7558" stroke-width="1.33333" stroke-linecap="round" stroke-linejoin="round"/>
</svg>
