<svg width="20" height="20" viewBox="0 0 20 20" fill="none" xmlns="http://www.w3.org/2000/svg">
<path d="M13.3221 17.4856V15.8203C13.3221 14.937 12.9712 14.0899 12.3466 13.4653C11.7219 12.8406 10.8748 12.4897 9.99148 12.4897H4.99562C4.11229 12.4897 3.26515 12.8406 2.64054 13.4653C2.01594 14.0899 1.66504 14.937 1.66504 15.8203V17.4856" stroke="white" stroke-width="1.66529" stroke-linecap="round" stroke-linejoin="round"/>
<path d="M7.49366 9.1592C9.33309 9.1592 10.8242 7.66805 10.8242 5.82862C10.8242 3.9892 9.33309 2.49805 7.49366 2.49805C5.65424 2.49805 4.16309 3.9892 4.16309 5.82862C4.16309 7.66805 5.65424 9.1592 7.49366 9.1592Z" stroke="white" stroke-width="1.66529" stroke-linecap="round" stroke-linejoin="round"/>
<path d="M15.8203 6.66113V11.657" stroke="white" stroke-width="1.66529" stroke-linecap="round" stroke-linejoin="round"/>
<path d="M18.3181 9.15918H13.3223" stroke="white" stroke-width="1.66529" stroke-linecap="round" stroke-linejoin="round"/>
</svg>
