<svg width="20" height="20" viewBox="0 0 20 20" fill="none" xmlns="http://www.w3.org/2000/svg">
<path d="M1.66666 7.91668C1.66667 6.98935 1.94798 6.08383 2.47343 5.31973C2.99888 4.55563 3.74375 3.96889 4.60966 3.63701C5.47557 3.30513 6.42179 3.24372 7.32333 3.46088C8.22488 3.67805 9.03934 4.16358 9.65916 4.85335C9.70281 4.90002 9.75559 4.93724 9.81422 4.96268C9.87285 4.98812 9.93608 5.00125 9.99999 5.00125C10.0639 5.00125 10.1271 4.98812 10.1858 4.96268C10.2444 4.93724 10.2972 4.90002 10.3408 4.85335C10.9587 4.1591 11.7733 3.66949 12.6764 3.44968C13.5794 3.22988 14.5279 3.2903 15.3957 3.62292C16.2635 3.95553 17.0095 4.54456 17.5343 5.3116C18.059 6.07864 18.3378 6.98731 18.3333 7.91668C18.3333 9.82501 17.0833 11.25 15.8333 12.5L11.2567 16.9275C11.1014 17.1059 10.9099 17.2491 10.695 17.3478C10.4801 17.4464 10.2467 17.4982 10.0102 17.4997C9.77377 17.5012 9.5397 17.4524 9.32356 17.3565C9.10743 17.2605 8.91418 17.1197 8.75666 16.9433L4.16666 12.5C2.91666 11.25 1.66666 9.83335 1.66666 7.91668Z" stroke="#FB2C36" stroke-width="1.66667" stroke-linecap="round" stroke-linejoin="round"/>
</svg>
