<svg width="24" height="24" viewBox="0 0 24 24" fill="none" xmlns="http://www.w3.org/2000/svg">
<path d="M15 21V13C15 12.7348 14.8946 12.4804 14.7071 12.2929C14.5196 12.1054 14.2652 12 14 12H9.99998C9.73477 12 9.48041 12.1054 9.29288 12.2929C9.10534 12.4804 8.99998 12.7348 8.99998 13V21" stroke="#6B7E3F" stroke-width="2" stroke-linecap="round" stroke-linejoin="round"/>
<path d="M2.99998 9.99999C2.99992 9.70906 3.06332 9.42161 3.18577 9.15771C3.30823 8.8938 3.48678 8.65979 3.70898 8.47199L10.709 2.47199C11.07 2.1669 11.5273 1.99951 12 1.99951C12.4726 1.99951 12.93 2.1669 13.291 2.47199L20.291 8.47199C20.5132 8.65979 20.6917 8.8938 20.8142 9.15771C20.9367 9.42161 21.0001 9.70906 21 9.99999V19C21 19.5304 20.7893 20.0391 20.4142 20.4142C20.0391 20.7893 19.5304 21 19 21H4.99998C4.46955 21 3.96084 20.7893 3.58577 20.4142C3.2107 20.0391 2.99998 19.5304 2.99998 19V9.99999Z" stroke="#6B7E3F" stroke-width="2" stroke-linecap="round" stroke-linejoin="round"/>
</svg>
