<svg width="20" height="20" viewBox="0 0 20 20" fill="none" xmlns="http://www.w3.org/2000/svg">
<g clip-path="url(#clip0_1136_138)">
<path d="M1.66553 7.91013C1.66554 6.98357 1.94662 6.0788 2.47164 5.31533C2.99665 4.55186 3.74091 3.96561 4.6061 3.634C5.47129 3.3024 6.41673 3.24103 7.31753 3.45802C8.21833 3.67501 9.03212 4.16014 9.65142 4.84933C9.69504 4.89597 9.74777 4.93315 9.80635 4.95857C9.86493 4.984 9.92811 4.99711 9.99197 4.99711C10.0558 4.99711 10.119 4.984 10.1776 4.95857C10.2362 4.93315 10.2889 4.89597 10.3325 4.84933C10.9499 4.15566 11.7639 3.66645 12.6661 3.44683C13.5684 3.2272 14.5161 3.28758 15.3832 3.61992C16.2503 3.95226 16.9957 4.5408 17.52 5.3072C18.0443 6.07361 18.3228 6.98153 18.3184 7.91013C18.3184 9.81689 17.0694 11.2407 15.8205 12.4897L11.2476 16.9135C11.0924 17.0917 10.9012 17.2348 10.6864 17.3334C10.4717 17.432 10.2385 17.4837 10.0022 17.4852C9.76594 17.4867 9.53206 17.4379 9.3161 17.3421C9.10014 17.2463 8.90706 17.1055 8.74966 16.9293L4.16346 12.4897C2.91449 11.2407 1.66553 9.82521 1.66553 7.91013Z" fill="#FB2C36" stroke="#FB2C36" stroke-width="1.66529" stroke-linecap="round" stroke-linejoin="round"/>
</g>
<defs>
<clipPath id="clip0_1136_138">
<rect width="19.9835" height="19.9835" fill="white"/>
</clipPath>
</defs>
</svg>
