<svg width="16" height="16" viewBox="0 0 16 16" fill="none" xmlns="http://www.w3.org/2000/svg">
<g clip-path="url(#clip0_1796_43)">
<path d="M13.3287 6.66436C13.3287 9.99179 9.63742 13.4572 8.39789 14.5274C8.28241 14.6143 8.14185 14.6612 7.99737 14.6612C7.85289 14.6612 7.71232 14.6143 7.59685 14.5274C6.35731 13.4572 2.66602 9.99179 2.66602 6.66436C2.66602 5.2504 3.22771 3.89435 4.22753 2.89452C5.22735 1.8947 6.5834 1.33301 7.99737 1.33301C9.41133 1.33301 10.7674 1.8947 11.7672 2.89452C12.767 3.89435 13.3287 5.2504 13.3287 6.66436Z" stroke="#6B7E3F" stroke-width="1.33284" stroke-linecap="round" stroke-linejoin="round"/>
<path d="M7.9973 8.66355C9.10146 8.66355 9.99656 7.76846 9.99656 6.6643C9.99656 5.56014 9.10146 4.66504 7.9973 4.66504C6.89314 4.66504 5.99805 5.56014 5.99805 6.6643C5.99805 7.76846 6.89314 8.66355 7.9973 8.66355Z" stroke="#6B7E3F" stroke-width="1.33284" stroke-linecap="round" stroke-linejoin="round"/>
</g>
<defs>
<clipPath id="clip0_1796_43">
<rect width="15.9941" height="15.9941" fill="white"/>
</clipPath>
</defs>
</svg>
