<svg width="20" height="20" viewBox="0 0 20 20" fill="none" xmlns="http://www.w3.org/2000/svg">
<g clip-path="url(#clip0_2706_40)">
<path d="M16.6526 4.99561H3.33054C2.41084 4.99561 1.66528 5.74117 1.66528 6.66086V13.3219C1.66528 14.2416 2.41084 14.9872 3.33054 14.9872H16.6526C17.5723 14.9872 18.3179 14.2416 18.3179 13.3219V6.66086C18.3179 5.74117 17.5723 4.99561 16.6526 4.99561Z" stroke="#6B7E3F" stroke-width="1.66526" stroke-linecap="round" stroke-linejoin="round"/>
<path d="M9.99143 11.6567C10.9111 11.6567 11.6567 10.9111 11.6567 9.99143C11.6567 9.07173 10.9111 8.32617 9.99143 8.32617C9.07173 8.32617 8.32617 9.07173 8.32617 9.99143C8.32617 10.9111 9.07173 11.6567 9.99143 11.6567Z" stroke="#6B7E3F" stroke-width="1.66526" stroke-linecap="round" stroke-linejoin="round"/>
<path d="M4.99585 9.9917H5.00418M14.9874 9.9917H14.9957" stroke="#6B7E3F" stroke-width="1.66526" stroke-linecap="round" stroke-linejoin="round"/>
</g>
<defs>
<clipPath id="clip0_2706_40">
<rect width="19.9831" height="19.9831" fill="white"/>
</clipPath>
</defs>
</svg>
