<svg width="32" height="32" viewBox="0 0 32 32" fill="none" xmlns="http://www.w3.org/2000/svg">
<path d="M14.9941 21.6587H16.9934L15.9938 22.6583L14.9941 21.6587Z" stroke="#9E9E9E" stroke-width="2.66568" stroke-linecap="round" stroke-linejoin="round"/>
<path d="M21.3252 18.6597V19.3261" stroke="#9E9E9E" stroke-width="2.66568" stroke-linecap="round" stroke-linejoin="round"/>
<path d="M5.89085 14.9902C5.51783 16.4306 5.32972 17.9127 5.33106 19.4006C5.33106 24.9612 10.1053 27.9894 15.9938 27.9894C21.8822 27.9894 26.6565 24.9612 26.6565 19.4006C26.6498 17.9066 26.4285 16.4213 25.9994 14.9902" stroke="#9E9E9E" stroke-width="2.66568" stroke-linecap="round" stroke-linejoin="round"/>
<path d="M10.6631 18.6597V19.3261" stroke="#9E9E9E" stroke-width="2.66568" stroke-linecap="round" stroke-linejoin="round"/>
<path d="M11.3294 11.3289C10.8175 12.7284 9.88589 14.0319 8.20518 14.661C5.63147 15.6233 3.43896 14.2652 3.33233 13.3282C3.18172 12.0033 4.90108 4.62474 8.66368 3.9983C11.2267 3.57046 13.5299 5.12455 13.5299 6.9772C15.2156 6.54906 16.9839 6.56836 18.66 7.03318C18.66 5.18053 21.1177 3.57046 23.6808 3.9983C27.4434 4.62474 29.1627 12.0033 29.0121 13.3282C28.9055 14.2652 26.713 15.6233 24.1393 14.661C22.4586 14.0319 21.6668 12.7284 21.155 11.3289" stroke="#9E9E9E" stroke-width="2.66568" stroke-linecap="round" stroke-linejoin="round"/>
</svg>
