<svg width="32" height="32" viewBox="0 0 32 32" fill="none" xmlns="http://www.w3.org/2000/svg">
<path d="M14.9941 21.6587H16.9934L15.9938 22.6583L14.9941 21.6587Z" stroke="#6B7558" stroke-width="2.66568" stroke-linecap="round" stroke-linejoin="round"/>
<path d="M21.3252 18.6597V19.3261" stroke="#6B7558" stroke-width="2.66568" stroke-linecap="round" stroke-linejoin="round"/>
<path d="M5.89085 14.9905C5.51783 16.4309 5.32972 17.9129 5.33106 19.4008C5.33106 24.9614 10.1053 27.9896 15.9938 27.9896C21.8822 27.9896 26.6565 24.9614 26.6565 19.4008C26.6498 17.9068 26.4285 16.4215 25.9994 14.9905" stroke="#6B7558" stroke-width="2.66568" stroke-linecap="round" stroke-linejoin="round"/>
<path d="M10.6631 18.6597V19.3261" stroke="#6B7558" stroke-width="2.66568" stroke-linecap="round" stroke-linejoin="round"/>
<path d="M11.3294 11.3292C10.8175 12.7286 9.88589 14.0322 8.20518 14.6613C5.63147 15.6236 3.43896 14.2654 3.33233 13.3284C3.18172 12.0036 4.90108 4.62498 8.66368 3.99855C11.2267 3.57071 13.5299 5.1248 13.5299 6.97744C15.2156 6.54931 16.9839 6.5686 18.66 7.03342C18.66 5.18078 21.1177 3.57071 23.6808 3.99855C27.4434 4.62498 29.1627 12.0036 29.0121 13.3284C28.9055 14.2654 26.713 15.6236 24.1393 14.6613C22.4586 14.0322 21.6668 12.7286 21.155 11.3292" stroke="#6B7558" stroke-width="2.66568" stroke-linecap="round" stroke-linejoin="round"/>
</svg>
