<svg width="15" height="19" viewBox="0 0 15 19" fill="none" xmlns="http://www.w3.org/2000/svg">
<path d="M14.1666 10.0004C14.1666 14.167 11.25 16.2504 7.78331 17.4587C7.60178 17.5202 7.40459 17.5173 7.22498 17.4504C3.74998 16.2504 0.833313 14.167 0.833313 10.0004V4.16702C0.833313 3.94601 0.921111 3.73405 1.07739 3.57777C1.23367 3.42149 1.44563 3.33369 1.66665 3.33369C3.33331 3.33369 5.41665 2.33369 6.86665 1.06702C7.04319 0.916187 7.26777 0.833313 7.49998 0.833313C7.73218 0.833313 7.95677 0.916187 8.13331 1.06702C9.59165 2.34202 11.6666 3.33369 13.3333 3.33369C13.5543 3.33369 13.7663 3.42149 13.9226 3.57777C14.0788 3.73405 14.1666 3.94601 14.1666 4.16702V10.0004Z" stroke="#6B7E3F" stroke-width="1.66667" stroke-linecap="round" stroke-linejoin="round"/>
</svg>
