<svg width="20" height="20" viewBox="0 0 20 20" fill="none" xmlns="http://www.w3.org/2000/svg">
<path d="M2.49805 5.82856V4.16331C2.49805 3.72165 2.67349 3.29809 2.98579 2.98579C3.29809 2.67349 3.72165 2.49805 4.16331 2.49805H5.82856" stroke="#6B7E3F" stroke-width="1.66526" stroke-linecap="round" stroke-linejoin="round"/>
<path d="M14.1548 2.49805H15.82C16.2617 2.49805 16.6853 2.67349 16.9976 2.98579C17.3099 3.29809 17.4853 3.72165 17.4853 4.16331V5.82856" stroke="#6B7E3F" stroke-width="1.66526" stroke-linecap="round" stroke-linejoin="round"/>
<path d="M17.4853 14.1548V15.82C17.4853 16.2617 17.3099 16.6853 16.9976 16.9976C16.6853 17.3099 16.2617 17.4853 15.82 17.4853H14.1548" stroke="#6B7E3F" stroke-width="1.66526" stroke-linecap="round" stroke-linejoin="round"/>
<path d="M5.82856 17.4853H4.16331C3.72165 17.4853 3.29809 17.3099 2.98579 16.9976C2.67349 16.6853 2.49805 16.2617 2.49805 15.82V14.1548" stroke="#6B7E3F" stroke-width="1.66526" stroke-linecap="round" stroke-linejoin="round"/>
<path d="M5.82861 9.9917H14.1549" stroke="#6B7E3F" stroke-width="1.66526" stroke-linecap="round" stroke-linejoin="round"/>
</svg>
