<svg width="20" height="20" viewBox="0 0 20 20" fill="none" xmlns="http://www.w3.org/2000/svg">
<g clip-path="url(#clip0_1353_4125)">
<path d="M12.1029 18.0566C12.1345 18.1354 12.1895 18.2027 12.2605 18.2494C12.3315 18.2961 12.415 18.3199 12.4999 18.3177C12.5849 18.3156 12.6671 18.2875 12.7356 18.2372C12.8041 18.187 12.8555 18.117 12.8831 18.0366L18.2953 2.21638C18.3219 2.1426 18.327 2.06276 18.3099 1.9862C18.2929 1.90963 18.2543 1.83952 18.1989 1.78405C18.1434 1.72858 18.0733 1.69006 17.9967 1.67299C17.9202 1.65591 17.8403 1.661 17.7666 1.68765L1.94631 7.09983C1.86596 7.12739 1.79596 7.17887 1.7457 7.24735C1.69545 7.31584 1.66735 7.39806 1.66518 7.48298C1.663 7.5679 1.68685 7.65145 1.73354 7.72242C1.78022 7.7934 1.84749 7.84839 1.92633 7.88002L8.5292 10.5278C8.73793 10.6114 8.92758 10.7364 9.08671 10.8952C9.24584 11.0541 9.37115 11.2435 9.4551 11.4521L12.1029 18.0566Z" stroke="white" stroke-width="1.66529" stroke-linecap="round" stroke-linejoin="round"/>
<path d="M18.197 1.7876L9.08789 10.8959" stroke="white" stroke-width="1.66529" stroke-linecap="round" stroke-linejoin="round"/>
</g>
<defs>
<clipPath id="clip0_1353_4125">
<rect width="19.9835" height="19.9835" fill="white"/>
</clipPath>
</defs>
</svg>
