<svg width="20" height="20" viewBox="0 0 20 20" fill="none" xmlns="http://www.w3.org/2000/svg">
  <path 
    d="M8.05918 3.44666C8.10509 2.96361 8.32945 2.51503 8.68843 2.18856C9.0474 1.86209 9.5152 1.68119 10.0004 1.68119C10.4857 1.68119 10.9535 1.86209 11.3124 2.18856C11.6714 2.51503 11.8958 2.96361 11.9417 3.44666C11.9693 3.75871 12.0716 4.05951 12.2401 4.32361C12.4086 4.58771 12.6382 4.80734 12.9096 4.9639C13.1809 5.12045 13.486 5.20933 13.7989 5.22301C14.1119 5.2367 14.4235 5.17478 14.7075 5.0425C15.1484 4.84231 15.6481 4.81335 16.1092 4.96124C16.5703 5.10913 16.9599 5.42329 17.2021 5.84258C17.4443 6.26188 17.5219 6.75631 17.4197 7.22964C17.3175 7.70297 17.0428 8.12134 16.6492 8.40333C16.3928 8.5832 16.1836 8.82217 16.0391 9.10002C15.8946 9.37787 15.8192 9.68642 15.8192 9.99958C15.8192 10.3127 15.8946 10.6213 16.0391 10.8991C16.1836 11.177 16.3928 11.416 16.6492 11.5958C17.0428 11.8778 17.3175 12.2962 17.4197 12.7695C17.5219 13.2429 17.4443 13.7373 17.2021 14.1566C16.9599 14.5759 16.5703 14.89 16.1092 15.0379C15.6481 15.1858 15.1484 15.1568 14.7075 14.9567C14.4235 14.8244 14.1119 14.7625 13.7989 14.7761C13.486 14.7898 13.1809 14.8787 12.9096 15.0353C12.6382 15.1918 12.4086 15.4114 12.2401 15.6755C12.0716 15.9396 11.9693 16.2405 11.9417 16.5525C11.8958 17.0355 11.6714 17.4841 11.3124 17.8106C10.9535 18.1371 10.4857 18.318 10.0004 18.318C9.5152 18.318 9.0474 18.1371 8.68843 17.8106C8.32945 17.4841 8.10509 17.0355 8.05918 16.5525C8.03163 16.2403 7.92926 15.9394 7.76073 15.6752C7.5922 15.411 7.36249 15.1913 7.09104 15.0348C6.81959 14.8782 6.5144 14.7893 6.20133 14.7757C5.88825 14.7622 5.57651 14.8242 5.29251 14.9567C4.85158 15.1568 4.35195 15.1858 3.89084 15.0379C3.42974 14.89 3.04015 14.5759 2.79791 14.1566C2.55567 13.7373 2.47811 13.2429 2.58031 12.7695C2.68251 12.2962 2.95718 11.8778 3.35084 11.5958C3.60719 11.416 3.81645 11.177 3.96092 10.8991C4.10538 10.6213 4.1808 10.3127 4.1808 9.99958C4.1808 9.68642 4.10538 9.37787 3.96092 9.10002C3.81645 8.82217 3.60719 8.5832 3.35084 8.40333C2.95773 8.1212 2.68355 7.70299 2.58159 7.22998C2.47964 6.75697 2.55718 6.26295 2.79916 5.84392C3.04114 5.4249 3.43027 5.11081 3.89092 4.9627C4.35157 4.81458 4.85083 4.84303 5.29168 5.0425C5.57564 5.17478 5.8873 5.2367 6.20026 5.22301C6.51322 5.20933 6.81829 5.12045 7.08962 4.9639C7.36096 4.80734 7.59059 4.58771 7.75906 4.32361C7.92754 4.05951 8.02991 3.75871 8.05751 3.44666" 
    stroke="currentColor" 
    stroke-width="1.66667" 
    stroke-linecap="round" 
    stroke-linejoin="round"/>
    
  <path 
    d="M10 12.5C11.3807 12.5 12.5 11.3807 12.5 10C12.5 8.61929 11.3807 7.5 10 7.5C8.61929 7.5 7.5 8.61929 7.5 10C7.5 11.3807 8.61929 12.5 10 12.5Z" 
    stroke="currentColor" 
    stroke-width="1.66667" 
    stroke-linecap="round" 
    stroke-linejoin="round"/>
</svg>
