<svg width="16" height="16" viewBox="0 0 16 16" fill="none" xmlns="http://www.w3.org/2000/svg">
<g clip-path="url(#clip0_463_14)">
<path d="M10.6627 6.66422C10.6627 7.3712 10.3819 8.04922 9.88195 8.54913C9.38204 9.04904 8.70402 9.32989 7.99704 9.32989C7.29005 9.32989 6.61203 9.04904 6.11212 8.54913C5.61221 8.04922 5.33136 7.3712 5.33136 6.66422" stroke="#6B7E3F" stroke-width="1.33284" stroke-linecap="round" stroke-linejoin="round"/>
<path d="M2.06787 4.02118H13.9261" stroke="#6B7E3F" stroke-width="1.33284" stroke-linecap="round" stroke-linejoin="round"/>
<path d="M2.26584 3.6433C2.0928 3.87401 1.99927 4.15462 1.99927 4.443V13.3284C1.99927 13.6819 2.13969 14.0209 2.38965 14.2708C2.6396 14.5208 2.97861 14.6612 3.33211 14.6612H12.662C13.0155 14.6612 13.3545 14.5208 13.6044 14.2708C13.8544 14.0209 13.9948 13.6819 13.9948 13.3284V4.443C13.9948 4.15462 13.9013 3.87401 13.7282 3.6433L12.3954 1.86596C12.2713 1.70043 12.1103 1.56607 11.9252 1.47354C11.7401 1.381 11.536 1.33282 11.3291 1.33282H4.66494C4.45803 1.33282 4.25395 1.381 4.06888 1.47354C3.88381 1.56607 3.72282 1.70043 3.59867 1.86596L2.26584 3.6433Z" stroke="#6B7E3F" stroke-width="1.33284" stroke-linecap="round" stroke-linejoin="round"/>
</g>
<defs>
<clipPath id="clip0_463_14">
<rect width="15.9941" height="15.9941" fill="white"/>
</clipPath>
</defs>
</svg>
