<svg width="20" height="20" viewBox="0 0 20 20" fill="none" xmlns="http://www.w3.org/2000/svg">
<path d="M1.71708 10.2816C1.64769 10.0946 1.64769 9.889 1.71708 9.70205C2.39294 8.06329 3.54017 6.6621 5.01333 5.67614C6.48649 4.69017 8.21924 4.16382 9.9919 4.16382C11.7646 4.16382 13.4973 4.69017 14.9705 5.67614C16.4436 6.6621 17.5909 8.06329 18.2667 9.70205C18.3361 9.889 18.3361 10.0946 18.2667 10.2816C17.5909 11.9203 16.4436 13.3215 14.9705 14.3075C13.4973 15.2935 11.7646 15.8198 9.9919 15.8198C8.21924 15.8198 6.48649 15.2935 5.01333 14.3075C3.54017 13.3215 2.39294 11.9203 1.71708 10.2816Z" stroke="#6B7E3F" stroke-width="1.66529" stroke-linecap="round" stroke-linejoin="round"/>
<path d="M9.99158 12.4898C11.3712 12.4898 12.4895 11.3714 12.4895 9.99183C12.4895 8.61226 11.3712 7.4939 9.99158 7.4939C8.61201 7.4939 7.49365 8.61226 7.49365 9.99183C7.49365 11.3714 8.61201 12.4898 9.99158 12.4898Z" stroke="#6B7E3F" stroke-width="1.66529" stroke-linecap="round" stroke-linejoin="round"/>
</svg>
