<svg width="20" height="20" viewBox="0 0 20 20" fill="none" xmlns="http://www.w3.org/2000/svg">
<path d="M11.6667 3.33332V12.1167C12.3021 12.4835 12.7988 13.0499 13.0796 13.7278C13.3604 14.4057 13.4097 15.1574 13.2197 15.8661C13.0298 16.5749 12.6113 17.2012 12.0292 17.6479C11.447 18.0946 10.7338 18.3367 9.99999 18.3367C9.26621 18.3367 8.55293 18.0946 7.97079 17.6479C7.38864 17.2012 6.97015 16.5749 6.78024 15.8661C6.59032 15.1574 6.63959 14.4057 6.92039 13.7278C7.2012 13.0499 7.69785 12.4835 8.33332 12.1167V3.33332C8.33332 2.8913 8.50892 2.46737 8.82148 2.15481C9.13404 1.84225 9.55796 1.66666 9.99999 1.66666C10.442 1.66666 10.8659 1.84225 11.1785 2.15481C11.4911 2.46737 11.6667 2.8913 11.6667 3.33332Z" stroke="#FF6900" stroke-width="1.66667" stroke-linecap="round" stroke-linejoin="round"/>
</svg>
