<svg width="20" height="20" viewBox="0 0 20 20" fill="none" xmlns="http://www.w3.org/2000/svg">
  <path
    d="M17.4875 10.405C17.4094 11.8518 16.9139 13.245 16.0609 14.4162C15.2079 15.5874 14.0339 16.4864 12.6808 17.0046C11.3278 17.5228 9.8536 17.638 8.43647 17.3363C7.01935 17.0346 5.71996 16.3288 4.69538 15.3043C3.6708 14.2798 2.9649 12.9805 2.66301 11.5634C2.36112 10.1463 2.47616 8.67214 2.99423 7.31903C3.51229 5.96592 4.41121 4.79184 5.58231 3.93871C6.75341 3.08559 8.14655 2.58994 9.59333 2.51168C9.93083 2.49335 10.1075 2.89502 9.92833 3.18085C9.32907 4.13965 9.07247 5.27324 9.20041 6.39664C9.32835 7.52004 9.83326 8.56692 10.6328 9.36642C11.4323 10.1659 12.4791 10.6708 13.6025 10.7988C14.7259 10.9267 15.8595 10.6701 16.8183 10.0709C17.105 9.89168 17.5058 10.0675 17.4875 10.405Z"
    stroke="currentColor"
    stroke-width="1.66667"
    stroke-linecap="round"
    stroke-linejoin="round"
  />
</svg>
