<svg width="20" height="20" viewBox="0 0 20 20" fill="none" xmlns="http://www.w3.org/2000/svg">
<g clip-path="url(#clip0_2748_204)">
<path d="M15.8198 4.16293L18.3177 1.66504" stroke="#FB2C36" stroke-width="1.66526" stroke-linecap="round" stroke-linejoin="round"/>
<path d="M1.66504 18.3177L4.16293 15.8198" stroke="#FB2C36" stroke-width="1.66526" stroke-linecap="round" stroke-linejoin="round"/>
<path d="M5.24575 16.9025C5.4314 17.0888 5.652 17.2366 5.89489 17.3375C6.13779 17.4383 6.39821 17.4903 6.66122 17.4903C6.92422 17.4903 7.18464 17.4383 7.42754 17.3375C7.67044 17.2366 7.89104 17.0888 8.07669 16.9025L9.99173 14.9875L4.99596 9.9917L3.08091 11.9067C2.89462 12.0924 2.7468 12.313 2.64594 12.5559C2.54508 12.7988 2.49316 13.0592 2.49316 13.3222C2.49316 13.5852 2.54508 13.8456 2.64594 14.0885C2.7468 14.3314 2.89462 14.552 3.08091 14.7377L5.24575 16.9025Z" stroke="#FB2C36" stroke-width="1.66526" stroke-linecap="round" stroke-linejoin="round"/>
<path d="M6.24463 11.2403L8.3262 9.15869" stroke="#FB2C36" stroke-width="1.66526" stroke-linecap="round" stroke-linejoin="round"/>
<path d="M8.74268 13.7383L10.8242 11.6567" stroke="#FB2C36" stroke-width="1.66526" stroke-linecap="round" stroke-linejoin="round"/>
<path d="M9.9917 4.99596L14.9875 9.99173L16.9025 8.07669C17.0888 7.89104 17.2366 7.67044 17.3375 7.42754C17.4383 7.18464 17.4903 6.92422 17.4903 6.66122C17.4903 6.39821 17.4383 6.13779 17.3375 5.89489C17.2366 5.652 17.0888 5.4314 16.9025 5.24575L14.7377 3.08091C14.552 2.89462 14.3314 2.7468 14.0885 2.64594C13.8456 2.54508 13.5852 2.49316 13.3222 2.49316C13.0592 2.49316 12.7988 2.54508 12.5559 2.64594C12.313 2.7468 12.0924 2.89462 11.9067 3.08091L9.9917 4.99596Z" stroke="#FB2C36" stroke-width="1.66526" stroke-linecap="round" stroke-linejoin="round"/>
</g>
<defs>
<clipPath id="clip0_2748_204">
<rect width="19.9831" height="19.9831" fill="white"/>
</clipPath>
</defs>
</svg>
