<svg width="48" height="48" viewBox="0 0 48 48" fill="none" xmlns="http://www.w3.org/2000/svg">
<path d="M23.0416 4.58859C23.1292 4.41158 23.2646 4.26258 23.4324 4.1584C23.6002 4.05423 23.7938 3.99902 23.9913 3.99902C24.1888 3.99902 24.3824 4.05423 24.5502 4.1584C24.718 4.26258 24.8533 4.41158 24.9409 4.58859L29.5592 13.9431C29.8635 14.5588 30.3126 15.0915 30.868 15.4954C31.4234 15.8994 32.0685 16.1625 32.748 16.2623L43.0762 17.7737C43.2719 17.802 43.4557 17.8846 43.607 18.012C43.7582 18.1394 43.8708 18.3066 43.9319 18.4946C43.9931 18.6827 44.0004 18.8841 43.953 19.0761C43.9057 19.2681 43.8056 19.443 43.664 19.581L36.1947 26.8543C35.7022 27.3343 35.3336 27.9269 35.1208 28.5809C34.908 29.235 34.8574 29.9309 34.9732 30.6089L36.7365 40.8851C36.7711 41.0807 36.75 41.2821 36.6756 41.4662C36.6012 41.6504 36.4765 41.81 36.3158 41.9267C36.1551 42.0434 35.9648 42.1126 35.7666 42.1264C35.5685 42.1402 35.3704 42.098 35.1951 42.0047L25.9625 37.1505C25.3542 36.8311 24.6774 36.6642 23.9903 36.6642C23.3032 36.6642 22.6264 36.8311 22.018 37.1505L12.7874 42.0047C12.6122 42.0975 12.4144 42.1392 12.2166 42.1251C12.0187 42.1111 11.8288 42.0418 11.6685 41.9251C11.5081 41.8085 11.3836 41.6492 11.3093 41.4653C11.235 41.2815 11.2137 41.0804 11.248 40.8851L13.0094 30.6109C13.1257 29.9326 13.0753 29.2362 12.8625 28.5818C12.6497 27.9273 12.2809 27.3344 11.7878 26.8543L4.3186 19.583C4.17584 19.4451 4.07467 19.2699 4.02663 19.0774C3.97859 18.8848 3.98559 18.6826 4.04685 18.4938C4.10812 18.305 4.22117 18.1372 4.37313 18.0096C4.52509 17.8819 4.70986 17.7995 4.90638 17.7717L15.2325 16.2623C15.9128 16.1633 16.5588 15.9005 17.115 15.4965C17.6712 15.0925 18.1209 14.5594 18.4254 13.9431L23.0416 4.58859Z" stroke="#D1D5DC" stroke-width="3.99851" stroke-linecap="round" stroke-linejoin="round"/>
</svg>
