<svg width="32" height="32" viewBox="0 0 32 32" fill="none" xmlns="http://www.w3.org/2000/svg">
<path d="M14.6611 2.66577V5.33145" stroke="#6B7558" stroke-width="2.66568" stroke-linecap="round" stroke-linejoin="round"/>
<path d="M6.66406 2.66577V5.33145" stroke="#6B7558" stroke-width="2.66568" stroke-linecap="round" stroke-linejoin="round"/>
<path d="M6.66453 3.99854H5.33169C4.62471 3.99854 3.94669 4.27938 3.44677 4.77929C2.94686 5.2792 2.66602 5.95723 2.66602 6.66421V11.9956C2.66602 14.1165 3.50856 16.1506 5.00829 17.6503C6.50802 19.15 8.5421 19.9926 10.663 19.9926C12.784 19.9926 14.8181 19.15 16.3178 17.6503C17.8175 16.1506 18.6601 14.1165 18.6601 11.9956V6.66421C18.6601 5.95723 18.3792 5.2792 17.8793 4.77929C17.3794 4.27938 16.7014 3.99854 15.9944 3.99854H14.6616" stroke="#6B7558" stroke-width="2.66568" stroke-linecap="round" stroke-linejoin="round"/>
<path d="M10.6631 19.9927C10.6631 22.1136 11.5056 24.1477 13.0054 25.6474C14.5051 27.1471 16.5392 27.9897 18.6601 27.9897C20.7811 27.9897 22.8151 27.1471 24.3149 25.6474C25.8146 24.1477 26.6571 22.1136 26.6571 19.9927V15.9941" stroke="#6B7558" stroke-width="2.66568" stroke-linecap="round" stroke-linejoin="round"/>
<path d="M26.6569 15.9939C28.1291 15.9939 29.3226 14.8005 29.3226 13.3283C29.3226 11.8561 28.1291 10.6626 26.6569 10.6626C25.1847 10.6626 23.9912 11.8561 23.9912 13.3283C23.9912 14.8005 25.1847 15.9939 26.6569 15.9939Z" stroke="#6B7558" stroke-width="2.66568" stroke-linecap="round" stroke-linejoin="round"/>
</svg>
