<svg width="20" height="20" viewBox="0 0 20 20" fill="none" xmlns="http://www.w3.org/2000/svg">
<path d="M9.99219 2.49805V17.4856" stroke="#6B7558" stroke-width="1.66529" stroke-linecap="round" stroke-linejoin="round"/>
<path d="M15.8202 6.66126L18.3181 13.3224C17.5975 13.8629 16.721 14.1551 15.8202 14.1551C14.9194 14.1551 14.0429 13.8629 13.3223 13.3224L15.8202 6.66126ZM15.8202 6.66126V5.82861" stroke="#6B7558" stroke-width="1.66529" stroke-linecap="round" stroke-linejoin="round"/>
<path d="M2.49805 5.82837H3.33069C5.6541 5.82837 7.94178 5.25645 9.99184 4.16309C12.0419 5.25645 14.3296 5.82837 16.653 5.82837H17.4856" stroke="#6B7558" stroke-width="1.66529" stroke-linecap="round" stroke-linejoin="round"/>
<path d="M4.16297 6.66126L6.6609 13.3224C5.94027 13.8629 5.06377 14.1551 4.16297 14.1551C3.26217 14.1551 2.38568 13.8629 1.66504 13.3224L4.16297 6.66126ZM4.16297 6.66126V5.82861" stroke="#6B7558" stroke-width="1.66529" stroke-linecap="round" stroke-linejoin="round"/>
<path d="M5.82812 17.4854H14.1546" stroke="#6B7558" stroke-width="1.66529" stroke-linecap="round" stroke-linejoin="round"/>
</svg>
